<svg width="21" height="13" viewBox="0 0 21 13" fill="none" xmlns="http://www.w3.org/2000/svg">
<path fill-rule="evenodd" clip-rule="evenodd" d="M0 6.5C0 6.30848 0.0790126 6.12481 0.219656 5.98938C0.360299 5.85396 0.551052 5.77788 0.749952 5.77788H18.4383L13.7181 1.23429C13.5773 1.0987 13.4982 0.914793 13.4982 0.723033C13.4982 0.531273 13.5773 0.347366 13.7181 0.211771C13.8589 0.0761763 14.0499 4.51803e-09 14.2491 0C14.4482 -4.51803e-09 14.6392 0.0761763 14.7801 0.211771L20.7797 5.98874C20.8495 6.05582 20.9049 6.1355 20.9427 6.22324C20.9805 6.31097 21 6.40502 21 6.5C21 6.59498 20.9805 6.68903 20.9427 6.77676C20.9049 6.8645 20.8495 6.94418 20.7797 7.01126L14.7801 12.7882C14.6392 12.9238 14.4482 13 14.2491 13C14.0499 13 13.8589 12.9238 13.7181 12.7882C13.5773 12.6526 13.4982 12.4687 13.4982 12.277C13.4982 12.0852 13.5773 11.9013 13.7181 11.7657L18.4383 7.22212H0.749952C0.551052 7.22212 0.360299 7.14604 0.219656 7.01062C0.0790126 6.87519 0 6.69152 0 6.5Z" fill="white"/>
</svg>
